<mxfile host="app.diagrams.net" agent="Mozilla/5.0 (X11; CrOS x86_64 14541.0.0) AppleWebKit/537.36 (KHTML, like Gecko) Chrome/126.0.0.0 Safari/537.36" version="24.7.7">
  <diagram name="Page-1" id="ZPZBQXHBuA4uCkIN9moh">
    <mxGraphModel dx="880" dy="1560" grid="1" gridSize="10" guides="1" tooltips="1" connect="1" arrows="1" fold="1" page="1" pageScale="1" pageWidth="850" pageHeight="1100" math="0" shadow="0">
      <root>
        <mxCell id="0" />
        <mxCell id="1" parent="0" />
        <mxCell id="G2wUE0ifWDJ5yke9PPTB-25" style="edgeStyle=orthogonalEdgeStyle;rounded=0;orthogonalLoop=1;jettySize=auto;html=1;exitX=1;exitY=0.5;exitDx=0;exitDy=0;" edge="1" parent="1" source="G2wUE0ifWDJ5yke9PPTB-18" target="G2wUE0ifWDJ5yke9PPTB-26">
          <mxGeometry relative="1" as="geometry">
            <mxPoint x="210" y="121" as="targetPoint" />
          </mxGeometry>
        </mxCell>
        <mxCell id="G2wUE0ifWDJ5yke9PPTB-18" value="" style="ellipse;whiteSpace=wrap;html=1;shadow=0;fillColor=#000000;fontColor=#ffffff;strokeColor=#005700;" vertex="1" parent="1">
          <mxGeometry x="80" y="81" width="80" height="80" as="geometry" />
        </mxCell>
        <mxCell id="G2wUE0ifWDJ5yke9PPTB-22" value="&lt;font color=&quot;#ffffff&quot;&gt;Admin&lt;/font&gt;" style="text;html=1;align=center;verticalAlign=middle;whiteSpace=wrap;rounded=0;shadow=0;glass=0;" vertex="1" parent="1">
          <mxGeometry x="90" y="107" width="60" height="30" as="geometry" />
        </mxCell>
        <mxCell id="G2wUE0ifWDJ5yke9PPTB-30" value="" style="edgeStyle=orthogonalEdgeStyle;rounded=0;orthogonalLoop=1;jettySize=auto;html=1;" edge="1" parent="1" source="G2wUE0ifWDJ5yke9PPTB-26" target="G2wUE0ifWDJ5yke9PPTB-29">
          <mxGeometry relative="1" as="geometry" />
        </mxCell>
        <mxCell id="G2wUE0ifWDJ5yke9PPTB-26" value="" style="rounded=0;whiteSpace=wrap;html=1;fontColor=#ffffff;strokeColor=#005700;fillColor=#000000;" vertex="1" parent="1">
          <mxGeometry x="209" y="91" width="120" height="60" as="geometry" />
        </mxCell>
        <mxCell id="G2wUE0ifWDJ5yke9PPTB-27" value="Melihat&amp;nbsp;&lt;div&gt;Tampilan&lt;/div&gt;" style="text;html=1;align=center;verticalAlign=middle;whiteSpace=wrap;rounded=0;fontColor=#FFFFFF;" vertex="1" parent="1">
          <mxGeometry x="238" y="107" width="60" height="30" as="geometry" />
        </mxCell>
        <mxCell id="G2wUE0ifWDJ5yke9PPTB-33" value="" style="edgeStyle=orthogonalEdgeStyle;rounded=0;orthogonalLoop=1;jettySize=auto;html=1;" edge="1" parent="1" source="G2wUE0ifWDJ5yke9PPTB-29" target="G2wUE0ifWDJ5yke9PPTB-32">
          <mxGeometry relative="1" as="geometry" />
        </mxCell>
        <mxCell id="G2wUE0ifWDJ5yke9PPTB-29" value="" style="rounded=0;whiteSpace=wrap;html=1;fontColor=#FFFFFF;strokeColor=#000000;fillColor=#000000;" vertex="1" parent="1">
          <mxGeometry x="399" y="91" width="120" height="60" as="geometry" />
        </mxCell>
        <mxCell id="G2wUE0ifWDJ5yke9PPTB-31" value="Update&lt;div&gt;Data&lt;/div&gt;" style="text;html=1;align=center;verticalAlign=middle;whiteSpace=wrap;rounded=0;fontColor=#FFFFFF;" vertex="1" parent="1">
          <mxGeometry x="428" y="108" width="60" height="30" as="geometry" />
        </mxCell>
        <mxCell id="G2wUE0ifWDJ5yke9PPTB-32" value="" style="whiteSpace=wrap;html=1;rounded=0;fillColor=#000000;fontColor=#ffffff;strokeColor=#005700;" vertex="1" parent="1">
          <mxGeometry x="599" y="91" width="120" height="60" as="geometry" />
        </mxCell>
        <mxCell id="G2wUE0ifWDJ5yke9PPTB-36" value="Menerima&lt;div&gt;Konfirmasi&lt;/div&gt;&lt;div&gt;User&lt;/div&gt;" style="text;html=1;align=center;verticalAlign=middle;whiteSpace=wrap;rounded=0;fontColor=#FFFFFF;" vertex="1" parent="1">
          <mxGeometry x="630" y="107" width="60" height="30" as="geometry" />
        </mxCell>
        <mxCell id="G2wUE0ifWDJ5yke9PPTB-41" value="" style="edgeStyle=orthogonalEdgeStyle;rounded=0;orthogonalLoop=1;jettySize=auto;html=1;" edge="1" parent="1" source="G2wUE0ifWDJ5yke9PPTB-37" target="G2wUE0ifWDJ5yke9PPTB-40">
          <mxGeometry relative="1" as="geometry" />
        </mxCell>
        <mxCell id="G2wUE0ifWDJ5yke9PPTB-37" value="" style="ellipse;whiteSpace=wrap;html=1;fillColor=#000000;" vertex="1" parent="1">
          <mxGeometry x="80" y="241" width="80" height="80" as="geometry" />
        </mxCell>
        <mxCell id="G2wUE0ifWDJ5yke9PPTB-39" value="User" style="text;html=1;align=center;verticalAlign=middle;whiteSpace=wrap;rounded=0;fontColor=#FFFFFF;" vertex="1" parent="1">
          <mxGeometry x="91" y="267" width="60" height="30" as="geometry" />
        </mxCell>
        <mxCell id="G2wUE0ifWDJ5yke9PPTB-43" value="" style="edgeStyle=orthogonalEdgeStyle;rounded=0;orthogonalLoop=1;jettySize=auto;html=1;" edge="1" parent="1" source="G2wUE0ifWDJ5yke9PPTB-40" target="G2wUE0ifWDJ5yke9PPTB-42">
          <mxGeometry relative="1" as="geometry" />
        </mxCell>
        <mxCell id="G2wUE0ifWDJ5yke9PPTB-40" value="" style="whiteSpace=wrap;html=1;fillColor=#000000;" vertex="1" parent="1">
          <mxGeometry x="208" y="251" width="120" height="60" as="geometry" />
        </mxCell>
        <mxCell id="G2wUE0ifWDJ5yke9PPTB-45" value="" style="edgeStyle=orthogonalEdgeStyle;rounded=0;orthogonalLoop=1;jettySize=auto;html=1;" edge="1" parent="1" source="G2wUE0ifWDJ5yke9PPTB-42" target="G2wUE0ifWDJ5yke9PPTB-44">
          <mxGeometry relative="1" as="geometry" />
        </mxCell>
        <mxCell id="G2wUE0ifWDJ5yke9PPTB-42" value="" style="whiteSpace=wrap;html=1;fillColor=#000000;" vertex="1" parent="1">
          <mxGeometry x="397" y="251" width="120" height="60" as="geometry" />
        </mxCell>
        <mxCell id="G2wUE0ifWDJ5yke9PPTB-44" value="" style="whiteSpace=wrap;html=1;fillColor=#000000;" vertex="1" parent="1">
          <mxGeometry x="598" y="251" width="120" height="60" as="geometry" />
        </mxCell>
        <mxCell id="G2wUE0ifWDJ5yke9PPTB-46" value="Melihat&lt;div&gt;Tampilan&lt;/div&gt;" style="text;html=1;align=center;verticalAlign=middle;whiteSpace=wrap;rounded=0;fontColor=#FFFFFF;" vertex="1" parent="1">
          <mxGeometry x="237" y="265" width="60" height="30" as="geometry" />
        </mxCell>
        <mxCell id="G2wUE0ifWDJ5yke9PPTB-47" value="Menghubungi&lt;div&gt;Admin&lt;/div&gt;" style="text;html=1;align=center;verticalAlign=middle;whiteSpace=wrap;rounded=0;fontColor=#FFFFFF;" vertex="1" parent="1">
          <mxGeometry x="425" y="266" width="60" height="30" as="geometry" />
        </mxCell>
        <mxCell id="G2wUE0ifWDJ5yke9PPTB-48" value="Menunggu&amp;nbsp;&lt;div&gt;Konfirmasi&lt;/div&gt;&lt;div&gt;Admin&lt;/div&gt;" style="text;html=1;align=center;verticalAlign=middle;whiteSpace=wrap;rounded=0;fontColor=#FFFFFF;" vertex="1" parent="1">
          <mxGeometry x="627" y="266" width="60" height="30" as="geometry" />
        </mxCell>
        <mxCell id="G2wUE0ifWDJ5yke9PPTB-49" value="&lt;p style=&quot;line-height: 120%;&quot;&gt;&lt;b style=&quot;&quot;&gt;&lt;font style=&quot;font-size: 27px;&quot;&gt;Profil Perusahaan Caffe&lt;/font&gt;&lt;/b&gt;&lt;/p&gt;" style="text;html=1;align=center;verticalAlign=middle;whiteSpace=wrap;rounded=0;" vertex="1" parent="1">
          <mxGeometry x="260" y="-1" width="390" height="60" as="geometry" />
        </mxCell>
      </root>
    </mxGraphModel>
  </diagram>
</mxfile>
